<svg width="44" height="44" viewBox="0 0 44 44" fill="none" xmlns="http://www.w3.org/2000/svg">
<path d="M41.1775 11.0002C39.7659 11.6418 38.2442 12.0635 36.6675 12.2652C38.2809 11.2935 39.5275 9.7535 40.1142 7.90183C38.5925 8.8185 36.9059 9.46016 35.1275 9.82683C33.6792 8.25016 31.6442 7.3335 29.3342 7.3335C25.0259 7.3335 21.5059 10.8535 21.5059 15.1985C21.5059 15.8218 21.5792 16.4268 21.7076 16.9952C15.1809 16.6652 9.36922 13.5302 5.50089 8.78183C4.82255 9.93683 4.43755 11.2935 4.43755 12.7235C4.43755 15.4552 5.81255 17.8752 7.93922 19.2502C6.63755 19.2502 5.42755 18.8835 4.36422 18.3335V18.3885C4.36422 22.2018 7.07755 25.3918 10.6709 26.1068C9.51742 26.4239 8.30595 26.4678 7.13255 26.2352C7.6305 27.798 8.6057 29.1656 9.92108 30.1455C11.2365 31.1255 12.8259 31.6686 14.4659 31.6985C11.6859 33.8994 8.2399 35.0891 4.69422 35.0718C4.07089 35.0718 3.44755 35.0352 2.82422 34.9618C6.30755 37.1985 10.4509 38.5002 14.8876 38.5002C29.3342 38.5002 37.2726 26.5102 37.2726 16.1152C37.2726 15.7668 37.2725 15.4368 37.2542 15.0885C38.7942 13.9885 40.1142 12.5952 41.1775 11.0002Z" fill="#A7A7A7"/>
</svg>
